<svg xmlns="http://www.w3.org/2000/svg" viewBox="0 0 1600 900"><defs><filter id="n"><feTurbulence baseFrequency=".55" numOctaves="4"/><feColorMatrix type="saturate" values="0"/><feComponentTransfer><feFuncA type="table" tableValues="0 .28"/></feComponentTransfer></filter></defs><rect width="1600" height="900" fill="#050505"/><rect width="1600" height="900" filter="url(#n)" opacity=".9"/><g stroke="#d6a738" stroke-width="5" fill="none" opacity=".85"><path d="M70 790 220 680 365 812 520 650"/><path d="M1320 110 l160 40 -130 100 205-40 -80 160"/><path d="M930 650 c180-130 280 80 520-30"/></g><g fill="#f5ead0" opacity=".9"><path d="M1050 145 1510 80 1480 365 1018 430z"/><path d="M110 165 610 110 630 330 95 380z"/></g><g fill="#111"><rect x="145" y="210" width="420" height="22" transform="rotate(-6 145 210)"/><rect x="1090" y="190" width="340" height="22" transform="rotate(-7 1090 190)"/></g><text x="95" y="710" font-family="Impact,Arial Black,sans-serif" font-size="150" fill="#d6a738" stroke="#000" stroke-width="8" transform="rotate(-3 95 710)">DROP CULTURE</text></svg>